<?xml version="1.0" encoding="utf-8"?>
<!-- Generator: Adobe Illustrator 23.0.3, SVG Export Plug-In . SVG Version: 6.00 Build 0)  -->
<svg version="1.1" id="Layer_1" xmlns="http://www.w3.org/2000/svg" xmlns:xlink="http://www.w3.org/1999/xlink" x="0px" y="0px"
	 viewBox="0 0 318.81 108.26" style="enable-background:new 0 0 318.81 108.26;" xml:space="preserve">
<style type="text/css">
	.st0{fill:#FFFFFF;}
</style>
<g>
	<path class="st0" d="M27.34,28.35c-7.04,0-13.25,1.59-18.63,4.78v10.11c4.88-4.18,10.36-6.28,16.44-6.28
		c6.91,0,10.36,3.64,10.36,10.91l-15.14,2.14C9.28,51.61,3.74,57.23,3.74,66.85c0,4.48,1.42,8.09,4.26,10.81
		c2.84,2.72,6.76,4.08,11.78,4.08c6.81,0,11.97-3.05,15.49-9.16h0.2v7.97h11.21V47.38C46.67,34.7,40.23,28.35,27.34,28.35z
		 M35.51,59.93c0,3.75-1.15,6.87-3.46,9.34c-2.31,2.47-5.22,3.71-8.74,3.71c-2.59,0-4.66-0.69-6.2-2.07
		c-1.54-1.38-2.32-3.15-2.32-5.3c0-2.95,0.84-5.02,2.52-6.2c1.68-1.18,4.17-1.98,7.5-2.42l10.71-1.49V59.93z"/>
	<path class="st0" d="M80.58,28.35c-7.04,0-13.25,1.59-18.63,4.78v10.11c4.88-4.18,10.36-6.28,16.44-6.28
		c6.91,0,10.36,3.64,10.36,10.91l-15.14,2.14c-11.09,1.59-16.63,7.21-16.63,16.83c0,4.48,1.42,8.09,4.26,10.81
		c2.84,2.72,6.76,4.08,11.78,4.08c6.81,0,11.97-3.05,15.49-9.16h0.2v7.97h11.21V47.38C99.91,34.7,93.47,28.35,80.58,28.35z
		 M88.75,59.93c0,3.75-1.15,6.87-3.46,9.34c-2.31,2.47-5.22,3.71-8.74,3.71c-2.59,0-4.66-0.69-6.2-2.07
		c-1.54-1.38-2.32-3.15-2.32-5.3c0-2.95,0.84-5.02,2.52-6.2c1.68-1.18,4.17-1.98,7.5-2.42l10.71-1.49V59.93z"/>
	<path class="st0" d="M133.78,66.7c-0.43,1.63-0.73,2.82-0.9,3.59h-0.25c-0.47-1.99-0.76-3.22-0.9-3.69l-12.15-37.05h-12.8
		l20.27,50.9l-3.44,8.37c-2.13,4.25-5.35,6.38-9.66,6.38c-1.49,0-3.15-0.3-4.98-0.9v9.61c1.63,0.43,3.65,0.65,6.08,0.65
		c8.63,0,15.34-5.28,20.12-15.84l23.01-59.17h-11.65L133.78,66.7z"/>
	<path class="st0" d="M198.77,58.88c0,4.08-1.1,7.39-3.31,9.91c-2.21,2.52-5.02,3.79-8.44,3.79c-7.07,0-10.61-4.58-10.61-13.75
		V29.55h-11.55v30.48c0,14.48,6.03,21.71,18.08,21.71c7.07,0,12.28-3.09,15.64-9.26h0.2v8.07h11.55v-51h-11.55V58.88z"/>
	<path class="st0" d="M254.55,56.87c-1.23-1.18-2.71-2.23-4.46-3.16c-1.74-0.93-3.71-1.84-5.9-2.74c-1.66-0.56-3.13-1.09-4.41-1.57
		c-1.28-0.48-2.38-1.01-3.29-1.59c-0.91-0.58-1.6-1.25-2.07-2.02c-0.47-0.76-0.7-1.69-0.7-2.79c0-0.9,0.23-1.72,0.7-2.47
		c0.46-0.75,1.11-1.39,1.94-1.92c0.83-0.53,1.83-0.95,3.01-1.25c1.18-0.3,2.5-0.45,3.96-0.45c4.65,0,8.77,1.23,12.35,3.69V30.5
		c-3.72-1.43-7.94-2.14-12.65-2.14c-2.66,0-5.23,0.32-7.72,0.97s-4.71,1.61-6.67,2.89c-1.96,1.28-3.52,2.86-4.68,4.73
		c-1.16,1.88-1.74,4.04-1.74,6.5c0,1.99,0.28,3.74,0.85,5.23c0.56,1.49,1.4,2.83,2.52,4.01c1.11,1.18,2.51,2.23,4.18,3.16
		c1.68,0.93,3.56,1.81,5.65,2.64c1.69,0.63,3.23,1.2,4.61,1.69c1.38,0.5,2.57,1.06,3.59,1.69c1.01,0.63,1.82,1.35,2.42,2.17
		c0.6,0.81,0.9,1.8,0.9,2.96c0,4.12-3.49,6.18-10.46,6.18c-5.21,0-9.98-1.64-14.29-4.93v10.71c4.08,1.86,8.91,2.79,14.49,2.79
		c2.89,0,5.64-0.31,8.24-0.92c2.61-0.61,4.91-1.55,6.9-2.81c1.99-1.26,3.59-2.85,4.78-4.78c1.2-1.93,1.79-4.18,1.79-6.77
		c0-2.12-0.33-3.96-1-5.5S255.78,58.05,254.55,56.87z"/>
	<path class="st0" d="M297.68,28.35c-7.17,0-12.68,3.22-16.54,9.66h-0.2V5.05h-11.6v75.5h11.6V53.11c0-4.55,1.16-8.28,3.49-11.21
		c2.32-2.92,5.18-4.38,8.57-4.38c6.74,0,10.11,5.05,10.11,15.14v27.89h11.55V49.12C314.67,35.28,309.01,28.35,297.68,28.35z"/>
</g>
</svg>
